<svg xmlns="http://www.w3.org/2000/svg" width="85" height="85.635" viewBox="0 0 85 85.635"><defs><style>.a,.b{fill:#c3d2d6;}.a{stroke:#fff;stroke-width:2px;}.c{fill:#fff;}.d{fill:rgba(52,55,56,0.35);}.e,.g{stroke:none;}.f{fill:none;}.g{fill:#d5d5d5;}</style></defs><g transform="translate(13486 17648.393)"><g transform="translate(-13486 -17647.84)"><g class="a" transform="translate(0 0)"><ellipse class="e" cx="42.5" cy="42.541" rx="42.5" ry="42.541"/><ellipse class="f" cx="42.5" cy="42.541" rx="41.5" ry="41.541"/></g><g transform="translate(23.517 21.504)"><g transform="translate(0)"><path class="b" d="M736.528,325.658c-5.661,0-10.265-5.251-10.265-11.7s4.6-11.7,10.265-11.7,10.265,5.25,10.265,11.7S742.188,325.658,736.528,325.658Zm0-20.757c-4.2,0-7.613,4.061-7.613,9.052s3.415,9.052,7.613,9.052,7.613-4.061,7.613-9.052S740.725,304.9,736.528,304.9Z" transform="translate(-717.473 -302.249)"/><path class="b" d="M711.017,366.075a1.327,1.327,0,0,1-1.268-1.715c.768-2.5,4.868-15,10.151-15h17.69c5.436,0,9.413,12.5,10.155,15.008a1.326,1.326,0,0,1-2.543.753c-1.568-5.286-5.071-13.109-7.612-13.109H719.9c-1.724,0-5.126,5.016-7.616,13.121A1.326,1.326,0,0,1,711.017,366.075Z" transform="translate(-709.69 -322.935)"/></g></g></g><path class="c" d="M736.528,325.658c-5.661,0-10.265-5.251-10.265-11.7s4.6-11.7,10.265-11.7,10.265,5.25,10.265,11.7S742.188,325.658,736.528,325.658Zm0-20.757c-4.2,0-7.613,4.061-7.613,9.052s3.415,9.052,7.613,9.052,7.613-4.061,7.613-9.052S740.725,304.9,736.528,304.9Z" transform="translate(-14179.961 -17933.15)"/><path class="c" d="M711.4,366.075a2.164,2.164,0,0,1-.5-.059c-.9-.215-1.409-.957-1.132-1.656.99-2.5,6.273-15,13.081-15h22.8c7.005,0,12.13,12.5,13.086,15.008.268.7-.248,1.44-1.153,1.648a1.828,1.828,0,0,1-2.124-.895c-2.02-5.286-6.534-13.109-9.809-13.109h-22.8c-2.222,0-6.606,5.016-9.814,13.121A1.718,1.718,0,0,1,711.4,366.075Z" transform="translate(-14177.69 -17949.135)"/><g class="d" transform="translate(-13486 -17648.393)"><path class="e" d="M 42.5 85.13489532470703 C 36.83027648925781 85.13489532470703 31.33038902282715 84.01627349853516 26.15308952331543 81.81010437011719 C 21.15192222595215 79.67897796630859 16.66024398803711 76.62793731689453 12.80283355712891 72.74171447753906 C 8.94516658782959 68.85523986816406 5.91646671295166 64.32954406738281 3.800877809524536 59.29038238525391 C 1.610577821731567 54.07323837280273 0.5 48.53094863891602 0.5 42.81744766235352 C 0.5 37.10394668579102 1.610577821731567 31.56165885925293 3.800877809524536 26.34451484680176 C 5.91646671295166 21.30534744262695 8.94516658782959 16.77965927124023 12.80283355712891 12.89318084716797 C 16.66024398803711 9.006958961486816 21.15192222595215 5.955903053283691 26.15308952331543 3.824792146682739 C 31.33038902282715 1.618625402450562 36.83027648925781 0.5000032186508179 42.5 0.5000032186508179 C 48.16972351074219 0.5000032186508179 53.66961288452148 1.618625402450562 58.84690093994141 3.824792146682739 C 63.84807968139648 5.955903053283691 68.33975219726562 9.006958961486816 72.19716644287109 12.89318084716797 C 76.05483245849609 16.77965927124023 79.08353424072266 21.30534744262695 81.19911956787109 26.34451484680176 C 83.38941955566406 31.56165885925293 84.5 37.10394668579102 84.5 42.81744766235352 C 84.5 48.53094863891602 83.38941955566406 54.07323837280273 81.19911956787109 59.29038238525391 C 79.08353424072266 64.32954406738281 76.05483245849609 68.85523986816406 72.19716644287109 72.74171447753906 C 68.33975219726562 76.62793731689453 63.84807968139648 79.67897796630859 58.84690093994141 81.81010437011719 C 53.66961288452148 84.01627349853516 48.16972351074219 85.13489532470703 42.5 85.13489532470703 Z"/><path class="g" d="M 42.5 1 C 36.89802169799805 1 31.46406936645508 2.105155944824219 26.34909439086914 4.284767150878906 C 21.40762329101562 6.390449523925781 16.96939086914062 9.405250549316406 13.15769195556641 13.24541473388672 C 9.345481872558594 17.08609771728516 6.352508544921875 21.55838775634766 4.261894226074219 26.53805923461914 C 2.097457885742188 31.69358825683594 1 37.1707649230957 1 42.81744766235352 C 1 48.46413040161133 2.097457885742188 53.9412956237793 4.261894226074219 59.09682464599609 C 6.352508544921875 64.07650756835938 9.345481872558594 68.54879760742188 13.15769195556641 72.38948059082031 C 16.96939086914062 76.22964477539062 21.40762329101562 79.24444580078125 26.34909439086914 81.35012817382812 C 31.46406936645508 83.52973937988281 36.89802169799805 84.63489532470703 42.5 84.63489532470703 C 48.10197830200195 84.63489532470703 53.53591918945312 83.52973937988281 58.65089416503906 81.35012817382812 C 63.59236526489258 79.24444580078125 68.03060150146484 76.22964477539062 71.84229278564453 72.38948059082031 C 75.65450286865234 68.54879760742188 78.64748382568359 64.07650756835938 80.73809814453125 59.09682464599609 C 82.90254211425781 53.9412956237793 84 48.46413040161133 84 42.81744766235352 C 84 37.1707649230957 82.90254211425781 31.69358825683594 80.73809814453125 26.53805923461914 C 78.64748382568359 21.55838775634766 75.65450286865234 17.08609771728516 71.84229278564453 13.24541473388672 C 68.03060150146484 9.405250549316406 63.59236526489258 6.390449523925781 58.65089416503906 4.284767150878906 C 53.53591918945312 2.105155944824219 48.10197830200195 1 42.5 1 M 42.5 0 C 65.97208404541016 0 85 19.17002105712891 85 42.81744766235352 C 85 66.46485900878906 65.97208404541016 85.63489532470703 42.5 85.63489532470703 C 19.02789306640625 85.63489532470703 0 66.46485900878906 0 42.81744766235352 C 0 19.17002105712891 19.02789306640625 0 42.5 0 Z"/></g></g></svg>